<?xml version="1.0" encoding="utf-8" ?>
<svg xmlns="http://www.w3.org/2000/svg" xmlns:xlink="http://www.w3.org/1999/xlink" width="512" height="512">
	<path fill="#3D0814" d="M251.688 13.3445C283.92 10.215 304.151 47.2661 284.205 72.16L284 72.4124C286.791 75.7209 289.111 79.494 291.579 83.0467L370.522 198.585L452.494 137.475C469.72 126.644 492.607 137.446 492.944 158C493.062 165.201 491.613 172.595 490.835 179.75L481.253 270.25C480.76 274.48 479.981 278.497 479.967 282.771L479.969 434.125C479.882 440.687 475.644 446.384 471.125 450.809C439.628 481.649 343.61 492.178 298.487 494.473L261.344 495.525L226 495.421L204.128 494.244L152.291 488.679L104.853 479.191C82.0603 473.787 35.6256 460.421 32.1399 434.936C31.4983 430.245 31.8856 425.097 31.891 420.36L31.942 287.814C31.9422 284.865 32.0607 281.865 31.8254 278.926L19.6931 166.25C19.3106 162.485 18.6142 157.947 19.4193 154.218L19.4987 153.875C21.4821 145.041 28.1601 137.64 36.5 134.25C51.093 128.319 64.4844 140.825 75 148.991L140.917 198.719L217.001 87.721C218.058 86.1967 227.722 71.8879 227.606 71.2959C227.508 70.7946 226.199 69.2798 225.875 68.7892C210.626 45.6924 225.64 17.5971 251.688 13.3445Z"/>
	<path fill="#CFBFA0" d="M409.194 212.495C411.649 210.251 414.552 208.334 417.242 206.366L456.825 177.347L447.054 267.963C445.982 276.639 445.904 283.865 445.928 292.625L445.664 404.77C444.866 403.902 437.596 400.626 436.25 399.998C402.952 384.451 353.044 377.336 316.814 374.109C315.258 373.971 296.652 372.444 296.489 372.288L294.995 371.753C295.624 371.523 296.275 371.42 296.916 371.238L307.008 369.095C368.154 353.185 389.9 315.387 402.661 255.141L407.878 226.801C408.404 223.014 410.155 216.231 409.194 212.495Z"/>
	<path fill="#522743" d="M247.14 404.175L280.779 404.324C282.195 404.381 283.587 404.645 285 404.723L336.179 409.11C362.718 412.485 389.416 417.6 414.823 426.079L430.141 431.693C431.66 432.332 433.769 433.013 435.033 434.052C384.168 454.516 319.703 463.897 265.163 463.88L221.284 463.332L180.875 459.471L135.714 451.892C125.991 449.86 116.247 447.686 106.75 444.752L76.6102 433.786C83.5421 430.55 90.8557 428.536 98.1053 426.17L119.226 419.743L172.795 409.464L205.917 406.185L247.14 404.175Z"/>
	<path fill="#EFFBC5" d="M296.489 372.288L286.15 372.047C284.362 371.948 282.577 371.667 280.788 371.641L240.609 371.641L198.415 374.06L160.559 378.061L132.559 383.01C110.456 387.435 89.0828 393.512 68.8824 403.607C67.8513 404.122 66.8262 404.322 65.9068 405.081L65.7881 293.732C65.821 283.23 65.6872 276.805 64.3847 266.413L55.4382 177.71C57.9929 178.746 60.2199 180.545 62.3778 182.226L128.018 232.16C147.23 246.809 152.55 241.277 163.717 225.409L246.413 105.656C249.645 101.029 252.674 96.1283 256.208 91.7338L352.881 231.816C361.987 243.909 371.498 242.345 382.44 233.328L409.191 212.495C410.155 216.231 408.404 223.014 407.878 226.801L402.661 255.141C389.9 315.387 368.154 353.185 307.008 369.095L296.916 371.238C296.275 371.42 295.624 371.523 294.995 371.753L296.489 372.288Z"/>
	<path fill="#384F3D" d="M256.031 235.845C259.763 241.004 264.42 245.627 268.524 250.512L297.854 285.427C302.138 290.517 307.457 295.367 310.834 301.111C310.121 302.624 308.853 303.901 307.767 305.162L270.895 348.736C266.215 354.451 261.79 360.463 256.66 365.788L201.42 300.699L256.031 235.845Z"/>
</svg>
